<svg xmlns="http://www.w3.org/2000/svg" viewBox="0 0 960 1080"><defs><style>.cls-1{opacity:0.2;}.cls-2{fill:#b31605;fill-rule:evenodd;}</style></defs><title>homepage_shadow</title><g id="图层_1" data-name="图层 1"><g id="图层_1-2" data-name="图层 1" class="cls-1"><path class="cls-2" d="M502.64,569.34c-8.25-6.86-53.76,22.33-53.76,22.33s15.21,23.85,31.6,21.55C490.89,611.76,507.53,573.4,502.64,569.34Z"/><path class="cls-2" d="M538.43,505.19s16,18,32.16,23.23c11.08,3.58,23.23,4.91,29.8,5.39a4.47,4.47,0,0,1,4.07,5.22c-.68,3.9,3.47,16.25-3.41,16.48-65.12,2.18-94.29,8-11.85,33.87,31,9.74-15,20.44-26.15,16.29C524.33,591.2,538.43,505.19,538.43,505.19Z"/><path class="cls-2" d="M524.69,492.81a1.28,1.28,0,1,1,1.25,1.53A1.41,1.41,0,0,1,524.69,492.81Z"/><path class="cls-2" d="M511.6,515.7s2.66-36.88-4.27-56.38S486,435.46,483.9,437.68c-10.63,11.15,16.51,16.82,23.43,36.32S511.6,515.7,511.6,515.7Z"/></g></g></svg>