<svg xmlns="http://www.w3.org/2000/svg" viewBox="0 0 960 1080"><defs><style>.cls-1{fill:#b31605;opacity:0.2;}.cls-1,.cls-2{fill-rule:evenodd;}.cls-2{fill:#f4efef;}</style></defs><title>homepage_shadow</title><g id="图层_1" data-name="图层 1"><path class="cls-1" d="M176.43,612.34H506c10,0,18.15,10,18.15,22.25V845.88c0,12.3-8.13,22.26-18.15,22.26H176.43c-10,0-18.15-10-18.15-22.26V634.59C158.28,622.3,166.4,612.34,176.43,612.34Z"/><path class="cls-2" d="M198.9,631.18H483.26c14.53,0,26.32,13.25,26.32,29.61V810.26c0,16.36-11.79,29.61-26.32,29.61H198.9c-14.53,0-26.32-13.25-26.32-29.61V660.79C172.58,644.43,184.37,631.18,198.9,631.18Z"/><path class="cls-1" d="M120.49,858.49H561.67v11.38H120.49Z"/><path class="cls-1" d="M658.44,449.45H852.59c13.86,0,25.1,13.26,25.1,29.62V799.24c0,16.36-11.24,29.63-25.1,29.63H658.44c-13.87,0-25.1-13.27-25.1-29.63V479.07C633.34,462.71,644.57,449.45,658.44,449.45Z"/><path class="cls-2" d="M675.81,463.45H835.22c16.34,0,29.6,15.27,29.6,34.11V778.08c0,18.84-13.26,34.11-29.6,34.11H675.81c-16.34,0-29.6-15.27-29.6-34.11V497.56C646.21,478.72,659.47,463.45,675.81,463.45Z"/><path class="cls-1" d="M572.63,693.39h81.19c3.51,0,6.36,2.29,6.36,5.1V845c0,2.81-2.85,5.1-6.36,5.1H572.63c-3.51,0-6.35-2.29-6.35-5.1V698.49C566.28,695.68,569.12,693.39,572.63,693.39Z"/><path class="cls-2" d="M578,699.61h70.5c2.93,0,5.3,1.83,5.3,4.09V839.77c0,2.26-2.37,4.09-5.3,4.09H578c-2.93,0-5.3-1.83-5.3-4.09V703.7C572.68,701.44,575.05,699.61,578,699.61Z"/></g></svg>