<svg xmlns="http://www.w3.org/2000/svg" viewBox="0 0 960 1080"><defs><style>.cls-1{fill:#b31605;opacity:0.2;}.cls-1,.cls-2{fill-rule:evenodd;}.cls-2,.cls-3{fill:#f4efef;}.cls-3{stroke:#e1b0aa;stroke-miterlimit:10;stroke-width:2px;}</style></defs><title>homepage_shadow</title><g id="图层_1" data-name="图层 1"><path class="cls-1" d="M155.73,634.32H485.32c10,0,18.15,10,18.15,22.25v211.3c0,12.29-8.13,22.25-18.15,22.25H155.73c-10,0-18.15-10-18.15-22.25V656.57C137.58,644.28,145.7,634.32,155.73,634.32Z"/><path class="cls-2" d="M178.2,653.16H462.56c14.53,0,26.31,13.26,26.31,29.61V832.25c0,16.35-11.78,29.61-26.31,29.61H178.2c-14.53,0-26.32-13.26-26.32-29.61V682.77C151.88,666.42,163.67,653.16,178.2,653.16Z"/><path class="cls-1" d="M99.79,880.47H541v11.38H99.79Z"/><path class="cls-1" d="M637.74,471.43H831.89c13.86,0,25.1,13.26,25.1,29.63V821.22c0,16.37-11.24,29.63-25.1,29.63H637.74c-13.87,0-25.11-13.26-25.11-29.63V501.06C612.63,484.69,623.87,471.43,637.74,471.43Z"/><path class="cls-2" d="M655.11,485.43H814.52c16.34,0,29.59,15.27,29.59,34.11V800.07c0,18.84-13.25,34.11-29.59,34.11H655.11c-16.35,0-29.6-15.27-29.6-34.11V519.54C625.51,500.7,638.76,485.43,655.11,485.43Z"/><path class="cls-1" d="M551.93,715.38h81.19c3.51,0,6.36,2.28,6.36,5.1V867c0,2.82-2.85,5.1-6.36,5.1H551.93c-3.51,0-6.35-2.28-6.35-5.1V720.48C545.58,717.66,548.42,715.38,551.93,715.38Z"/><path class="cls-2" d="M557.28,721.59h70.5c2.92,0,5.3,1.83,5.3,4.09V861.75c0,2.26-2.38,4.1-5.3,4.1h-70.5c-2.93,0-5.3-1.84-5.3-4.1V725.68C552,723.42,554.35,721.59,557.28,721.59Z"/><g id="图层_2-2" data-name="图层 2"><path class="cls-3" d="M133.12,662.46c6.7,56-23.81,70-23.81,70l61.12.34s22.15-10.88,10.71-72.78C152.61,663.5,154.18,657.82,133.12,662.46ZM564.7,568.82c8.9,71.8-31.7,89.78-31.7,89.78l81.35.44s29.48-14,14.25-93.39C590.63,570.15,592.73,562.86,564.7,568.82ZM472.21,786.91c1.41,40.59-13.13,61.59-13.13,61.59l57.29,3s-4.23-7.68.44-59C491.35,788.24,490.46,789.46,472.21,786.91Zm17.63-73.48-.32,15.38,49,3.77L540.4,715ZM501,736.09V750.6l39.92,1.21,1.62-14.51Zm82-211.16v14.52l39.92,1.21,1.62-14.52ZM813.72,751c-8.33,55,7.08,73.34,7.08,73.34l62.93-2.5S855.81,796,855.81,753.05C824.14,753.89,833.72,752.22,813.72,751Zm19.59.83L830,723.88l-40.42.42,4.58,56.26,16.67.41M632.3,619.3l13.28.35,1.36-70L601,549.26l-1.3,17.17"/></g></g></svg>