<svg xmlns="http://www.w3.org/2000/svg" viewBox="0 0 960 1080"><defs><style>.cls-1{opacity:0.8;}.cls-2{fill:#edd5d2;}.cls-2,.cls-3{fill-rule:evenodd;}.cls-3{fill:#b31605;opacity:0.2;}</style></defs><title>homepage_shadow</title><g id="图层_1" data-name="图层 1"><g class="cls-1"><path class="cls-2" d="M235.14,531s-82.88,51.73-104.87,74.4C113.21,623,96.84,764.59,105.84,813.34c4,21.64,52.66,31.31,52,28.76l-1.73,48.2H398.17l2.48-61.63c26.58-2.53,44.78-32.4,45.7-44,3.94-49.78,3.36-133.59-14.57-168.25-17-32.79-88.32-67.71-109.42-85.7L322,520.32s25-9,28.85-18.53c6.5-16.11,15-114.57-5.61-138.63-10-11.71-35.69-17.93-44.26-21-17.23-6.09-48.52,8.62-61.13,17.65-6.49,4.66-11.17,23.23-14.66,33.89-3.07,9.4,4.51,36.71,4.51,36.71s-11.08.11-14.28,15c-3.06,14.19,16,21.26,18.53,17.36Z"/><path class="cls-3" d="M235.14,531s-82.88,51.73-104.87,74.4C113.21,623,96.84,764.59,105.84,813.34c4,21.64,52.66,31.31,52,28.76l-1.73,48.2H398.17l2.48-61.63c26.58-2.53,44.78-32.4,45.7-44,3.94-49.78,3.36-133.59-14.57-168.25-17-32.79-88.32-67.71-109.42-85.7L282.24,687.6Z"/><path class="cls-3" d="M228.34,430.86l-4.51-36.71,14.66-33.89,40.59-17.45L301,342.2s26.53,5.26,33.05,11c11.21,9.93,20.85,33.1,20.85,33.1l.08,38.93Z"/><path class="cls-3" d="M265.07,462.9l-4,7.74v21.17A25.7,25.7,0,0,0,279.75,513l40.89,7.78,22.68-14.57a15.66,15.66,0,0,0,7.08-11.23l4.06-32Z"/></g></g></svg>